# xmcd
#
# Track frame offsets: 
#        182
#        15817
#        35495
#        50377
#        69490
#        80590
#        95577
#        112425
#        128515
#        144275
#        157972
#        171835
#
# Disc length: 2480 seconds
#
# Revision: 2
# Processed by: cddbd v1.5.2PL0 Copyright (c) Steve Scherf et al.
# Submitted via: ExactAudioCopy v0.95b4
#
DISCID=9509ae0c
DTITLE=Various Artist - New Country September 1995
DYEAR=1995
DGENRE=Country
TTITLE0=Sawyer Brown - (This Thing Called) Wantin' And Havin' It All
TTITLE1=Leslie Tucker - True Gentleman
TTITLE2=Brett James - Female Bonding
TTITLE3=Steve Riley And Mamou Playboys - Je M'en Fous Pas Ma!
TTITLE4=Dead Hot Workshop - Lead Thoughts
TTITLE5=Laurie Lewis And Tom Rozum - Sleepy Eyes
TTITLE6=Blackhawk - I'm Not Strong Enough To Say No
TTITLE7=Hootie And The Blowfish - Running From An Angel
TTITLE8=Hootie And The Blowfish - Fine Line
TTITLE9=Victoria Shaw - (A Day In The Life Of A) Single Mother
TTITLE10=Blue Highway - In The Gravel Yard
TTITLE11=Calvin Gilmore - Take The Light To The Mountain (Theme From "
TTITLE11=Christy")
EXTD=
EXTT0=SAWYER BROWN
EXTT1=LESLIE TUCKER
EXTT2=BRETT JAMES
EXTT3=STEVE RILEY and THE MAMOU PLAYBOYS
EXTT4=DEAD HOT WORKSHOP
EXTT5=LAURIE LEWIS and TOM BOZUM
EXTT6=BLACKHAWK
EXTT7=HOOTIE and THE BLOWFISH
EXTT8=HOOTIE and THE BLOWFISH
EXTT9=VICTORIA SHAW
EXTT10=BLUE HIGHWAY
EXTT11=CALVIN GILMORE
PLAYORDER=
